<svg width="20" height="20" viewBox="0 0 20 20" fill="none" xmlns="http://www.w3.org/2000/svg">
    <path d="M15.2486 4.75794C14.9236 4.43294 14.3986 4.43294 14.0736 4.75794L9.99863 8.82461L5.92363 4.74961C5.59863 4.42461 5.07363 4.42461 4.74863 4.74961C4.42363 5.07461 4.42363 5.59961 4.74863 5.92461L8.82363 9.99961L4.74863 14.0746C4.42363 14.3996 4.42363 14.9246 4.74863 15.2496C5.07363 15.5746 5.59863 15.5746 5.92363 15.2496L9.99863 11.1746L14.0736 15.2496C14.3986 15.5746 14.9236 15.5746 15.2486 15.2496C15.5736 14.9246 15.5736 14.3996 15.2486 14.0746L11.1736 9.99961L15.2486 5.92461C15.5653 5.60794 15.5653 5.07461 15.2486 4.75794Z" fill="#252525"/>
</svg>
